<svg xmlns="http://www.w3.org/2000/svg" xmlns:xlink="http://www.w3.org/1999/xlink" width="500" zoomAndPan="magnify" viewBox="0 0 375 374.999991" height="500" preserveAspectRatio="xMidYMid meet" version="1.0"><defs><g/></defs><g fill="#3b84e4" fill-opacity="1"><g transform="translate(7.243075, 304.849717)"><g><path d="M 172.421875 -82.234375 C 173.753906 -86.710938 176 -89.988281 179.15625 -92.0625 C 182.3125 -94.144531 185.550781 -95.1875 188.875 -95.1875 C 192.695312 -95.1875 196.101562 -94.019531 199.09375 -91.6875 C 202.082031 -89.363281 203.578125 -86.046875 203.578125 -81.734375 C 203.578125 -79.734375 203.242188 -77.820312 202.578125 -76 C 197.597656 -61.050781 191.492188 -47.84375 184.265625 -36.375 C 177.035156 -24.914062 168.5625 -15.988281 158.84375 -9.59375 C 149.125 -3.195312 138.035156 0 125.578125 0 C 117.273438 0 109.59375 -1.578125 102.53125 -4.734375 C 95.46875 -7.890625 89.78125 -12.539062 85.46875 -18.6875 C 79.320312 -12.539062 72.382812 -7.890625 64.65625 -4.734375 C 56.9375 -1.578125 49.421875 0 42.109375 0 C 32.972656 0 24.707031 -1.953125 17.3125 -5.859375 C 9.925781 -9.765625 4.070312 -15.117188 -0.25 -21.921875 C -4.570312 -28.734375 -6.734375 -36.539062 -6.734375 -45.34375 C -6.734375 -51.320312 -5.566406 -57.550781 -3.234375 -64.03125 L 37.375 -178.40625 C 40.195312 -186.382812 44.554688 -193.195312 50.453125 -198.84375 C 56.347656 -204.488281 63.117188 -208.804688 70.765625 -211.796875 C 78.410156 -214.785156 86.300781 -216.28125 94.4375 -216.28125 C 98.09375 -216.28125 102.160156 -215.820312 106.640625 -214.90625 C 111.128906 -214 115.445312 -212.503906 119.59375 -210.421875 C 123.75 -208.347656 127.070312 -205.398438 129.5625 -201.578125 C 131.5625 -207.054688 134.925781 -211.207031 139.65625 -214.03125 C 144.394531 -216.863281 149.171875 -218.28125 153.984375 -218.28125 C 158.640625 -218.28125 162.75 -216.90625 166.3125 -214.15625 C 169.882812 -211.414062 171.671875 -207.140625 171.671875 -201.328125 C 171.671875 -198.171875 170.925781 -194.4375 169.4375 -190.125 L 120.84375 -54.3125 C 119.019531 -49.332031 118.109375 -45.097656 118.109375 -41.609375 C 118.109375 -38.285156 119.0625 -35.75 120.96875 -34 C 122.882812 -32.257812 125.421875 -31.390625 128.578125 -31.390625 C 136.710938 -31.390625 144.640625 -35.957031 152.359375 -45.09375 C 160.085938 -54.226562 166.773438 -66.609375 172.421875 -82.234375 Z M 50.578125 -37.625 C 54.898438 -37.625 59.050781 -38.535156 63.03125 -40.359375 C 67.019531 -42.191406 70.925781 -45.554688 74.75 -50.453125 C 78.570312 -55.359375 82.0625 -62.378906 85.21875 -71.515625 L 115.125 -155.484375 C 115.445312 -156.316406 115.691406 -157.1875 115.859375 -158.09375 C 116.023438 -159.007812 116.109375 -159.882812 116.109375 -160.71875 C 116.109375 -165.863281 113.988281 -170.390625 109.75 -174.296875 C 105.519531 -178.203125 100.582031 -180.15625 94.9375 -180.15625 C 89.945312 -180.15625 85.414062 -178.453125 81.34375 -175.046875 C 77.28125 -171.640625 74.171875 -167.03125 72.015625 -161.21875 L 37.625 -63.296875 C 36.289062 -59.304688 35.625 -55.898438 35.625 -53.078125 C 35.625 -48.585938 36.953125 -44.890625 39.609375 -41.984375 C 42.273438 -39.078125 45.929688 -37.625 50.578125 -37.625 Z M 50.578125 -37.625 "/></g></g></g><g fill="#3b84e4" fill-opacity="1"><g transform="translate(167.455897, 304.849717)"><g><path d="M 175.171875 -71.515625 C 176.828125 -76.828125 179.234375 -80.601562 182.390625 -82.84375 C 185.546875 -85.09375 188.785156 -86.21875 192.109375 -86.21875 C 195.929688 -86.21875 199.335938 -84.882812 202.328125 -82.21875 C 205.316406 -79.5625 206.8125 -76.078125 206.8125 -71.765625 C 206.8125 -70.929688 206.726562 -70.015625 206.5625 -69.015625 C 206.394531 -68.023438 206.144531 -67.03125 205.8125 -66.03125 C 200.5 -49.582031 193.976562 -36.539062 186.25 -26.90625 C 178.53125 -17.269531 170.1875 -10.375 161.21875 -6.21875 C 152.25 -2.070312 143.191406 0 134.046875 0 C 121.753906 0 111.660156 -3.195312 103.765625 -9.59375 C 95.878906 -15.988281 91.9375 -24.582031 91.9375 -35.375 C 91.9375 -40.695312 93.101562 -46.429688 95.4375 -52.578125 L 104.65625 -76 C 105.8125 -78.988281 106.390625 -82.0625 106.390625 -85.21875 C 106.390625 -88.039062 105.515625 -90.363281 103.765625 -92.1875 C 102.023438 -94.019531 99.578125 -95.019531 96.421875 -95.1875 C 90.273438 -93.1875 85.210938 -92.1875 81.234375 -92.1875 C 76.410156 -92.1875 72.671875 -93.140625 70.015625 -95.046875 C 67.359375 -96.960938 65.53125 -99.207031 64.53125 -101.78125 C 63.539062 -104.363281 62.960938 -106.566406 62.796875 -108.390625 L 29.40625 -14.203125 C 27.738281 -9.390625 24.953125 -5.816406 21.046875 -3.484375 C 17.148438 -1.160156 13.039062 0 8.71875 0 C 3.738281 0 -0.703125 -1.410156 -4.609375 -4.234375 C -8.515625 -7.054688 -10.46875 -11.046875 -10.46875 -16.203125 C -10.46875 -17.859375 -10.050781 -20.097656 -9.21875 -22.921875 L 53.578125 -201.078125 C 55.566406 -206.722656 58.507812 -210.664062 62.40625 -212.90625 C 66.3125 -215.15625 70.175781 -216.28125 74 -216.28125 C 77.988281 -216.28125 81.5625 -215.238281 84.71875 -213.15625 C 87.875 -211.082031 89.785156 -208.632812 90.453125 -205.8125 C 94.765625 -208.96875 99.125 -210.960938 103.53125 -211.796875 C 107.9375 -212.628906 111.71875 -213.046875 114.875 -213.046875 C 116.03125 -213.046875 117.023438 -213.003906 117.859375 -212.921875 C 118.691406 -212.835938 119.4375 -212.796875 120.09375 -212.796875 C 127.90625 -212.460938 135.335938 -210.59375 142.390625 -207.1875 C 149.453125 -203.78125 155.1875 -199.046875 159.59375 -192.984375 C 164 -186.921875 166.203125 -179.488281 166.203125 -170.6875 C 166.203125 -164.875 165.117188 -158.476562 162.953125 -151.5 C 160.796875 -144.519531 157.804688 -137.957031 153.984375 -131.8125 C 150.160156 -125.664062 145.675781 -120.765625 140.53125 -117.109375 C 143.519531 -113.953125 145.882812 -110.378906 147.625 -106.390625 C 149.375 -102.410156 150.25 -97.757812 150.25 -92.4375 C 150.25 -86.457031 148.921875 -80.226562 146.265625 -73.75 L 134.046875 -42.859375 C 133.722656 -41.691406 133.4375 -40.648438 133.1875 -39.734375 C 132.9375 -38.828125 132.8125 -37.957031 132.8125 -37.125 C 132.8125 -33.46875 135.21875 -31.640625 140.03125 -31.640625 C 143.519531 -31.640625 147.21875 -32.800781 151.125 -35.125 C 155.03125 -37.457031 159.054688 -41.488281 163.203125 -47.21875 C 167.359375 -52.945312 171.347656 -61.046875 175.171875 -71.515625 Z M 68.765625 -125.578125 C 71.753906 -129.566406 75.492188 -132.515625 79.984375 -134.421875 C 84.472656 -136.335938 89.289062 -137.296875 94.4375 -137.296875 C 99.75 -137.296875 104.984375 -136.296875 110.140625 -134.296875 C 113.128906 -135.960938 115.742188 -138.5 117.984375 -141.90625 C 120.222656 -145.3125 121.921875 -149.003906 123.078125 -152.984375 C 124.242188 -156.972656 124.828125 -160.628906 124.828125 -163.953125 C 124.828125 -168.441406 123.375 -172.054688 120.46875 -174.796875 C 117.5625 -177.535156 113.703125 -178.90625 108.890625 -178.90625 C 103.410156 -178.90625 98.09375 -177.117188 92.9375 -173.546875 C 87.789062 -169.972656 83.722656 -165.363281 80.734375 -159.71875 Z M 68.765625 -125.578125 "/></g></g></g></svg>