<svg xmlns="http://www.w3.org/2000/svg" xmlns:v="https://vecta.io/nano" preserveAspectRatio="xMidYMid meet" viewBox="0 115.98 496.3 289.92"><path d="M205.3 117.5c-9.1 2.8-16.1 8.3-20.6 16.2l-2.3 4.3-3-3.1c-4.8-5-12.6-9.6-21-12.5-11.6-3.9-29.3-4.5-41.9-1.4-17.4 4.3-30.9 12.1-42.2 24.4-8.2 8.9-12.6 17.8-21.8 44.1l-28 79L2.9 331c-2.1 8.4-1.6 24.2 1 32.8 2.5 8.5 10.3 20.5 16.9 26.2s21.1 12.6 30.4 14.5c22.1 4.3 45.3-1.9 64.8-17.4l7.4-5.9 6.8 6.8c17.1 17.4 46.5 22.7 73.7 13.3 4.2-1.4 8.1-2.9 8.7-3.4.7-.6 1.6-.3 2.5.7.7.8 3.6 2.8 6.3 4.2 6.7 3.5 18.6 3.7 25.7.5 5.5-2.4 10.9-7.6 13.3-12.7 1.6-3.3 10.3-27.8 36.3-101.4 5.3-15 10-26.9 10.3-26.5.4.5 1.2 2.7 1.9 5.1 1.7 5.9 7.1 11.7 12.8 13.6 6.3 2.2 13.1 2 23.5-.6 8.6-2.1 8.9-2.1 12.8-.3 5.3 2.4 8.4 8.6 7.7 15.4-.3 2.6-3.9 13.3-8 23.7-9.9 25.1-10.9 29-10.9 39.9.1 10.3 2.2 17.8 7.1 24.9 10 14.5 30.2 22.6 53.1 21.3 33.6-2 61.3-23.3 79.5-61.1 11.9-24.8 14.2-37.1 8.2-44.9-7.3-9.6-20.6-10.1-29.8-1.1-3.7 3.6-4.8 5.6-12 22.9-7.8 18.8-18.4 33.3-28.7 39-5.2 2.9-14.2 5-17.9 4-3.7-.9-6.3-4.1-6.3-7.9 0-1.9 4.3-14.3 10-28.9 11.8-30 13.4-36.1 12.7-47.2-.7-10.7-2.9-17.1-8-24.2l-4.3-5.8 6.1-6c20-19.3 32-55.8 26-78.8-6.4-24.8-29.7-40.8-61.5-42.4-13.2-.6-20.3.7-30.9 5.9-4.6 2.2-6.6 2.8-6.9 1.9-1-3-7-8.5-11-10.2-6.3-2.7-15.4-2.5-21.7.5-6 2.8-12.8 10-14.8 15.9L272.2 204l-29.6 84c-11.5 32.9-20.5 49.3-34.7 63.6-13.5 13.7-33.1 17.7-39 8-4-6.5-2.4-15.7 6.9-41.1l61.9-177.6c1.7-17.8-14.1-29.2-32.4-23.4zm-57 50.8c9.9 4.8 16.1 13.6 16.1 23.2.1 5.4-2.3 12.6-21.7 67-12.5 34.8-23.9 64.9-26.5 70-6 11.8-16 22.2-24.4 25.3-8.8 3.3-17.3 3.8-22.8 1.4-9-3.9-12.6-10.8-11.7-22.1.5-7.1 1.2-9.3 10.5-35.6l22.2-63 18.6-50.6c4.2-7.6 11.1-13.9 18.1-16.5 5.5-2 16.5-1.5 21.6.9zm227.4.2c12.3 3.6 16.9 15 12.8 31-3.1 11.8-8.4 21-14.9 26-3.2 2.5-3.4 2.5-8.2 1-16.6-5.2-34.7-1.8-46 8.7-2.4 2.2-4.4 3.6-4.4 3 0-3.2 16.4-46.9 19-50.6 7.4-10.9 22.7-20.1 34.1-20.5 1.4-.1 4.8.6 7.6 1.4z"></path></svg>